<?xml version="1.0" encoding="UTF-8"?>
<svg version="1.1" xmlns="http://www.w3.org/2000/svg" width="735" height="1027">
<path d="M0 0 C1.08087891 0.61359375 2.16175781 1.2271875 3.27539062 1.859375 C11.65258567 6.62965457 19.97606539 11.49271636 28.28979492 16.37255859 C35.4151521 20.54670483 42.59680558 24.60930919 49.8125 28.625 C59.04181402 33.76131389 68.18486973 39.02712535 77.29296875 44.375 C84.4177819 48.54743959 91.59796141 52.60995244 98.8125 56.625 C108.03664729 61.75843849 117.17490599 67.02077435 126.27758789 72.36621094 C133.55214778 76.62676033 140.88490396 80.77318919 148.25 84.875 C155.75281124 89.05408472 163.21178021 93.28585884 170.59619141 97.67041016 C177.23204229 101.60096037 183.92603618 105.42828116 190.625 109.25 C191.22172516 109.59045349 191.81845032 109.93090698 192.43325806 110.28167725 C195.50022965 112.03119078 198.56764641 113.77992207 201.63525391 115.52832031 C206.95050078 118.55823389 212.26195176 121.59478764 217.57357788 124.63104248 C220.48638561 126.29598602 223.39945652 127.96046898 226.3125 129.625 C227.47916792 130.29166448 228.64583459 130.95833114 229.8125 131.625 C230.39 131.955 230.9675 132.285 231.5625 132.625 C253.7294871 145.29184977 275.8964742 157.95869954 298.0634613 170.62554932 C298.64120804 170.95569031 299.21895477 171.2858313 299.81420898 171.62597656 C302.1418457 172.95605469 304.46948242 174.28613281 306.79711914 175.61621094 C307.37239853 175.94494202 307.94767792 176.2736731 308.54039001 176.61236572 C310.2875061 177.61071777 312.03462219 178.60906982 313.78173828 179.60742188 C314.36191711 179.93895264 314.94209595 180.2704834 315.53985596 180.61206055 C320.92529297 183.68945312 320.92529297 183.68945312 322.74188232 184.7275238 C323.95088484 185.41836933 325.15990983 186.10917554 326.36895752 186.79994202 C329.33488014 188.49452909 332.30042929 190.18976232 335.26513672 191.88647461 C340.63080915 194.95599853 346.00054567 198.0173523 351.38671875 201.05078125 C384.28085529 219.60216918 384.28085529 219.60216918 389.3125 237.625 C391.59145253 251.16377723 389.49628845 261.94931674 382.3125 273.625 C376.75249011 281.35106834 368.18085942 285.5378644 360.05517578 290.08496094 C357.01501511 291.79204065 353.98926906 293.52301042 350.96484375 295.2578125 C346.21313938 297.98275566 341.45824706 300.70193232 336.69921875 303.4140625 C330.14722686 307.1482936 323.59865927 310.88848229 317.05142212 314.63104248 C314.13861439 316.29598602 311.22554348 317.96046898 308.3125 319.625 C307.14583208 320.29166448 305.97916541 320.95833114 304.8125 321.625 C273.3125 339.625 273.3125 339.625 241.8125 357.625 C241.23501007 357.95499496 240.65752014 358.28498993 240.06253052 358.62498474 C238.89576463 359.29170665 237.72899624 359.95842418 236.56222534 360.62513733 C233.64705622 362.29092284 230.73193053 363.95678427 227.81689453 365.62280273 C222.54906805 368.63340313 217.28092441 371.64344147 212.01116943 374.65066528 C200.09673452 381.44978188 188.19105827 388.2632986 176.3125 395.125 C173.11573635 396.96938162 169.91875717 398.81338899 166.72167969 400.65722656 C164.32046958 402.04320146 161.92004927 403.43047958 159.52050781 404.81933594 C156.28866905 406.68956113 153.05393634 408.55469506 149.81738281 410.41674805 C148.57451019 411.13293322 147.33262865 411.85084138 146.09179688 412.57055664 C144.36850312 413.56979512 142.64136129 414.56238825 140.9140625 415.5546875 C139.92744629 416.12429199 138.94083008 416.69389648 137.92431641 417.28076172 C135.6417928 418.45552102 133.78599237 419.06480969 131.3125 419.625 C131.31011165 418.67231358 131.30772329 417.71962715 131.30526257 416.73807144 C131.24639157 393.52578501 131.17046183 370.31360174 131.07678509 347.10142899 C131.03187551 335.87605988 130.99244969 324.65072216 130.96606445 313.42529297 C130.9430452 303.63787721 130.90960332 293.85056117 130.86379844 284.06322455 C130.83991921 278.88393422 130.82115572 273.70474233 130.81488609 268.52539825 C130.80881124 263.64327117 130.78872507 258.76139578 130.75822449 253.87936211 C130.74948261 252.09448181 130.74571363 250.30956856 130.74749184 248.52466774 C130.7596175 230.72579046 128.03287049 215.52824932 115.4375 201.9375 C109.90346735 196.72766817 103.81949501 192.98510328 97.18017578 189.33325195 C92.16602655 186.55674961 87.20552325 183.69200886 82.25 180.8125 C81.38439453 180.31041016 80.51878906 179.80832031 79.62695312 179.29101562 C77.52170951 178.0697417 75.41689978 176.84772718 73.3125 175.625 C73.31477832 177.18927251 73.31477832 177.18927251 73.31710267 178.78514647 C73.38379181 224.75415148 73.44550106 270.72315995 73.48187256 316.69219971 C73.48242479 317.38836311 73.48297702 318.0845265 73.48354598 318.80178576 C73.49551815 333.93200317 73.5065988 349.06222111 73.51676132 364.19243984 C73.52175058 371.61250558 73.52693681 379.03257118 73.53222656 386.45263672 C73.5327496 387.19101474 73.53327263 387.92939277 73.53381152 388.69014588 C73.55085096 412.61468444 73.58089175 436.53918517 73.61768888 460.46370081 C73.65544012 485.05326129 73.68004661 509.64280084 73.68815996 534.23238981 C73.68931255 537.70705316 73.69061509 541.18171644 73.69200897 544.6563797 C73.69227866 545.34023011 73.69254836 546.02408052 73.69282622 546.72865367 C73.6975495 557.72809976 73.71609201 568.72748104 73.73982814 579.72690072 C73.76340644 590.79028425 73.77204121 601.85361862 73.76650551 612.91703013 C73.76394259 618.90932975 73.76788216 624.90143947 73.7893219 630.89370537 C73.80881775 636.38278849 73.80975005 641.87155437 73.79609558 647.36065224 C73.7944085 649.34336238 73.79945673 651.3260925 73.81203273 653.30876347 C73.90099741 668.2041183 72.68780412 680.98180157 62.3125 692.625 C56.1107404 698.84405764 49.46681979 703.1317727 41.75 707.25 C39.51844624 708.4693706 37.28800432 709.69077785 35.05859375 710.9140625 C33.37032471 711.83687012 33.37032471 711.83687012 31.64794922 712.77832031 C26.48328226 715.63775091 21.39829216 718.62820339 16.3125 721.625 C7.17590646 726.99170901 -2.03790065 732.20302994 -11.296875 737.35522461 C-19.80663696 742.10254392 -28.23430097 746.9820742 -36.63476562 751.91992188 C-40.99260175 754.47996079 -45.35519995 757.03117442 -49.75 759.52734375 C-50.46285156 759.93331787 -51.17570312 760.33929199 -51.91015625 760.75756836 C-53.6875 761.625 -53.6875 761.625 -55.6875 761.625 C-55.75604484 690.24935319 -55.81964456 618.87370244 -55.85687256 547.49803162 C-55.85742479 546.44197097 -55.85797702 545.38591033 -55.85854598 544.29784785 C-55.87051708 521.34786072 -55.88159788 498.39787325 -55.89176132 475.44788525 C-55.89675075 464.19352824 -55.90193695 452.93917132 -55.90722656 441.68481445 C-55.90801112 440.00488167 -55.90801112 440.00488167 -55.90881152 438.29101085 C-55.92586272 401.97754848 -55.95591229 365.66411098 -55.99268888 329.35066368 C-56.03040703 292.03983065 -56.05503894 254.72901139 -56.06315996 217.41815962 C-56.06431261 212.15057315 -56.06561516 206.88298673 -56.06700897 201.61540031 C-56.06727866 200.57864426 -56.06754836 199.54188821 -56.06782622 198.4737153 C-56.0725566 181.77195043 -56.09111831 165.07022806 -56.11482814 148.36848053 C-56.13835918 131.58536791 -56.14737642 114.80229752 -56.14150551 98.01916898 C-56.1384588 88.04296441 -56.14661327 78.06691416 -56.17069017 68.0907374 C-56.18567122 61.42940134 -56.18616772 54.76816652 -56.17482725 48.10682351 C-56.16877893 44.30946368 -56.16908462 40.51239604 -56.18703273 36.71506733 C-56.20621781 32.62498036 -56.19447779 28.53556339 -56.17969131 24.44545841 C-56.19019937 23.26584245 -56.20070742 22.0862265 -56.2115339 20.8708646 C-56.13502513 11.54862945 -53.89213345 4.1728122 -47.53125 -2.8046875 C-31.84905383 -16.16113424 -15.70963637 -9.04585588 0 0 Z " fill="#7EBDEA" transform="translate(55.6875,265.375)"/>
<path d="M0 0 C4.22720269 1.36172058 7.87910523 2.90438893 11.7265625 5.1328125 C13.37591797 6.08220703 13.37591797 6.08220703 15.05859375 7.05078125 C16.24742099 7.74214424 17.43622235 8.43355173 18.625 9.125 C19.87336563 9.84562802 21.12206998 10.56566954 22.37109375 11.28515625 C24.96388176 12.77930947 27.55519882 14.27596755 30.14550781 15.77441406 C36.08347348 19.20662001 42.04283313 22.60126267 48 26 C50.3309526 27.33164039 52.66155184 28.66389877 54.9921875 29.99609375 C59.09451741 32.34054302 63.19752546 34.6837992 67.30133057 37.02566528 C80.29103355 44.43839663 93.26572044 51.87611088 106.21582031 59.35791016 C117.611459 65.93788357 129.03889357 72.46191372 140.46777344 78.98388672 C145.7304792 81.98733176 150.99117186 84.99429965 156.25201416 88.00100708 C159.16792672 89.66748282 162.08396998 91.33372982 165 93 C166.16666729 93.66666557 167.33333396 94.33333224 168.5 95 C169.0775 95.33 169.655 95.66 170.25 96 C259.49999998 146.99999999 259.49999998 146.99999999 261.24996948 147.99998474 C262.41673537 148.66670665 263.58350376 149.33342418 264.75027466 150.00013733 C267.66544378 151.66592284 270.58056947 153.33178427 273.49560547 154.99780273 C278.76343195 158.00840313 284.03157559 161.01844147 289.30133057 164.02566528 C302.29103355 171.43839663 315.26572044 178.87611088 328.21582031 186.35791016 C339.611459 192.93788357 351.03889357 199.46191372 362.46777344 205.98388672 C367.7304792 208.98733176 372.99117186 211.99429965 378.25201416 215.00100708 C381.16792672 216.66748282 384.08396998 218.33372982 387 220 C388.16666729 220.66666557 389.33333396 221.33333224 390.5 222 C391.0775 222.33 391.655 222.66 392.25 223 C481.49999998 273.99999999 481.49999998 273.99999999 483.24996948 274.99998474 C484.41673537 275.66670665 485.58350376 276.33342418 486.75027466 277.00013733 C489.66544378 278.66592284 492.58056947 280.33178427 495.49560547 281.99780273 C501.35287861 285.3452761 507.21089824 288.69143196 513.0703125 292.03515625 C527.70362246 300.38677812 542.32803756 308.75348355 556.90136719 317.20947266 C559.98186933 318.98952329 563.07219637 320.75149794 566.1640625 322.51171875 C575.62018516 327.93644465 584.43211376 333.04444921 592 341 C592.86625 341.825 593.7325 342.65 594.625 343.5 C595.40875 344.325 596.1925 345.15 597 346 C597.58007812 346.58523438 598.16015625 347.17046875 598.7578125 347.7734375 C616.59837986 366.59348699 623.73039956 391.92839699 623.47021484 417.41796875 C622.64926544 443.51274562 612.96796295 468.6619694 594 487 C583.7100553 496.25150991 572.02598741 503.09181935 560.0625 509.9375 C558.94278809 510.58082275 557.82307617 511.22414551 556.66943359 511.88696289 C553.11514865 513.92847905 549.55776457 515.96455576 546 518 C544.83999422 518.66404103 543.68000062 519.32810333 542.52001953 519.9921875 C536.11614563 523.65723508 529.70952851 527.317447 523.30107117 530.97447205 C517.44865856 534.31422905 511.59822472 537.65744426 505.74798584 541.00100708 C502.83207328 542.66748282 499.91603002 544.33372982 497 546 C495.83333271 546.66666557 494.66666604 547.33333224 493.5 548 C463.16666667 565.33333333 432.83333333 582.66666667 402.5 600 C401.92251007 600.32999496 401.34502014 600.65998993 400.75003052 600.99998474 C399.58326463 601.66670665 398.41649624 602.33342418 397.24972534 603.00013733 C394.33455622 604.66592284 391.41943053 606.33178427 388.50439453 607.99780273 C383.23656805 611.00840313 377.96842441 614.01844147 372.69866943 617.02566528 C360.78423855 623.82477958 348.87811196 630.63753173 337 637.5 C324.53397777 644.70212794 312.03638756 651.84829676 299.53222656 658.98388672 C294.2695208 661.98733176 289.00882814 664.99429965 283.74798584 668.00100708 C280.83207328 669.66748282 277.91603002 671.33372982 275 673 C273.83333271 673.66666557 272.66666604 674.33333224 271.5 675 C264.50000005 678.99999997 264.50000005 678.99999997 262.75007629 679.99995422 C261.58315281 680.6667691 260.41623183 681.33358835 259.24931335 682.00041199 C256.33659649 683.66484701 253.42383645 685.32920639 250.51098633 686.9934082 C244.61442917 690.36240543 238.71863561 693.73272809 232.82421875 697.10546875 C227.01095854 700.43166648 221.19499105 703.75308593 215.37744141 707.07177734 C213.10800142 708.36742842 210.83945949 709.66465367 208.57177734 710.96337891 C205.34177391 712.81290309 202.10876519 714.65706308 198.875 716.5 C197.41646606 717.33760864 197.41646606 717.33760864 195.9284668 718.19213867 C195.04199463 718.69592041 194.15552246 719.19970215 193.2421875 719.71875 C192.4672998 720.16154297 191.69241211 720.60433594 190.89404297 721.06054688 C189 722 189 722 187 722 C186.93005622 713.99310226 186.87696604 705.98633518 186.84456348 697.97920609 C186.82900086 694.25995229 186.80793802 690.54090966 186.77368164 686.82177734 C186.74074807 683.22316199 186.72307657 679.62474794 186.71536827 676.02599335 C186.70724215 674.00556287 186.68387906 671.98521179 186.66011047 669.96490479 C186.65739197 654.84349999 189.82886717 642.58726131 200.3046875 631.48828125 C210.33377583 622.22954318 223.58617148 616.2465471 235.4296875 609.67578125 C241.67080745 606.2022625 247.84259266 602.61934416 254 599 C263.14884256 593.62754884 272.37404337 588.40922803 281.64453125 583.25 C288.81353695 579.25035548 295.92092763 575.15651956 303 571 C311.11419099 566.23570437 319.27809188 561.57588149 327.5 557 C336.65723315 551.90169076 345.7369317 546.68691945 354.77832031 541.38623047 C362.4079881 536.91721265 370.06977486 532.50638369 377.75 528.125 C378.33431793 527.79163635 378.91863586 527.45827271 379.5206604 527.11480713 C382.4919198 525.4199651 385.46363272 523.72592016 388.43554688 522.03222656 C393.71093295 519.02529256 398.98234438 516.01140383 404.25402832 512.99798584 C407.16918658 511.3317007 410.08460663 509.66587373 413 508 C414.16666792 507.33333552 415.33333459 506.66666886 416.5 506 C428.16666667 499.33333333 439.83333333 492.66666667 451.5 486 C452.07739426 485.67005035 452.65478851 485.34010071 453.24967957 485.00015259 C454.4173793 484.33291596 455.58511413 483.66574075 456.75288391 482.99862671 C459.65403598 481.34117922 462.55444722 479.68246756 465.45385742 478.02197266 C470.88853722 474.91107905 476.32792004 471.81000778 481.78811646 468.74407959 C484.34932078 467.30514311 486.90731313 465.86054917 489.46508789 464.41552734 C490.67801845 463.73236228 491.89249393 463.05193148 493.10864258 462.37451172 C499.67390403 458.71663133 505.40783572 455.01366453 511 450 C511.66 450 512.32 450 513 450 C513.27070312 449.42378906 513.54140625 448.84757812 513.8203125 448.25390625 C515.0102711 445.98037607 516.37477718 444.01682437 517.875 441.9375 C525.39085892 430.81990918 527.47760203 418.03016291 525.5390625 404.87109375 C522.56891902 391.47050524 515.50276992 380.93361433 504.2019043 373.04736328 C501.21532201 371.2411933 498.1913511 369.54204853 495.125 367.875 C493.40462325 366.91124874 491.68425976 365.94747312 489.96456909 364.98249817 C488.17720171 363.98251966 486.38591245 362.98989022 484.59375 361.99853516 C479.31980882 359.07477439 474.09612585 356.06373648 468.86663818 353.06134033 C465.93719058 351.38128391 463.00364767 349.70841277 460.0703125 348.03515625 C453.62804866 344.35903771 447.18775152 340.67948555 440.74798584 336.99899292 C437.83207328 335.33251718 434.91603002 333.66627018 432 332 C430.83333271 331.33333443 429.66666604 330.66666776 428.5 330 C427.9225 329.67 427.345 329.34 426.75 329 C393.50000002 310.00000001 393.50000002 310.00000001 391.75006104 309.00003052 C390.58319593 308.33325336 389.41632581 307.66648497 388.24945068 306.99972534 C385.33577909 305.33482094 382.42219422 303.66976514 379.50878906 302.00439453 C374.22315109 298.98319858 368.93686097 295.96317201 363.64738464 292.94869995 C360.68116606 291.25820925 357.7154488 289.56684065 354.75 287.875 C354.1670517 287.54244202 353.58410339 287.20988403 352.98348999 286.86724854 C344.89754031 282.25211953 336.84427229 277.58378188 328.8125 272.875 C319.724328 267.54771058 310.55943841 262.37236462 301.35473633 257.24951172 C293.17949662 252.688689 285.09197544 247.98978374 277.01953125 243.25 C269.8947181 239.07756041 262.71453859 235.01504756 255.5 231 C246.27068598 225.86368611 237.12763027 220.59787465 228.01953125 215.25 C220.8947181 211.07756041 213.71453859 207.01504756 206.5 203 C197.27068598 197.86368611 188.12763027 192.59787465 179.01953125 187.25 C171.89471475 183.07755844 164.71446163 179.01518978 157.5 175 C148.34276685 169.90169076 139.2630683 164.68691945 130.22167969 159.38623047 C122.5920119 154.91721265 114.93022514 150.50638369 107.25 146.125 C106.3735231 145.62495453 106.3735231 145.62495453 105.4793396 145.11480713 C102.5080802 143.4199651 99.53636728 141.72592016 96.56445312 140.03222656 C91.28824827 137.02482586 86.01600766 134.01048821 80.74349976 130.99661255 C77.84082601 129.33739747 74.93801606 127.67842077 72.03515625 126.01953125 C71.45949417 125.69055344 70.88383209 125.36157562 70.29072571 125.02262878 C65.48042882 122.27392962 60.66897545 119.52725873 55.85668945 116.78204346 C52.87140581 115.0786439 49.88752444 113.37288034 46.90673828 111.66162109 C41.74883682 108.70240989 36.58603419 105.76003757 31.37109375 102.90234375 C16.58449126 94.74111717 5.76586835 85.8205999 0.42726135 69.21893311 C-0.14440948 66.25002584 -0.11920923 63.41931287 -0.11352539 60.39550781 C-0.11367142 59.74143448 -0.11381744 59.08736115 -0.1139679 58.41346741 C-0.11327341 56.25998574 -0.10550283 54.10659148 -0.09765625 51.953125 C-0.09579042 50.45668586 -0.09436729 48.96024612 -0.09336853 47.46380615 C-0.08955635 43.53141585 -0.07973717 39.59906268 -0.06866455 35.66668701 C-0.05842249 31.65149437 -0.05386492 27.6362957 -0.04882812 23.62109375 C-0.03811372 15.74737883 -0.02105291 7.87369404 0 0 Z " fill="#4C7AC7" transform="translate(0,99)"/>
<path d="M0 0 C3.96611127 1.21945594 7.39764431 2.63879014 10.95703125 4.765625 C11.89160156 5.31863281 12.82617188 5.87164062 13.7890625 6.44140625 C14.78679688 7.03824219 15.78453125 7.63507812 16.8125 8.25 C25.31634624 13.27736565 33.86424302 18.20273473 42.5 23 C51.72974156 28.13552839 60.87238792 33.40213603 69.98046875 38.75 C77.1052819 42.92243959 84.28546141 46.98495244 91.5 51 C100.72931402 56.13631389 109.87236973 61.40212535 118.98046875 66.75 C126.10528525 70.92244156 133.28553837 74.98481022 140.5 79 C149.65723315 84.09830924 158.7369317 89.31308055 167.77832031 94.61376953 C175.4079881 99.08278735 183.06977486 103.49361631 190.75 107.875 C191.33431793 108.20836365 191.91863586 108.54172729 192.5206604 108.88519287 C195.4919198 110.5800349 198.46363272 112.27407984 201.43554688 113.96777344 C206.71093295 116.97470744 211.98234438 119.98859617 217.25402832 123.00201416 C220.16918658 124.6682993 223.08460663 126.33412627 226 128 C227.16666792 128.66666448 228.33333459 129.33333114 229.5 130 C230.0775 130.33 230.655 130.66 231.25 131 C320.49999998 181.99999999 320.49999998 181.99999999 322.24996948 182.99998474 C323.41673537 183.66670665 324.58350376 184.33342418 325.75027466 185.00013733 C328.66544378 186.66592284 331.58056947 188.33178427 334.49560547 189.99780273 C339.76343195 193.00840313 345.03157559 196.01844147 350.30133057 199.02566528 C363.29103355 206.43839663 376.26572044 213.87611088 389.21582031 221.35791016 C400.611459 227.93788357 412.03889357 234.46191372 423.46777344 240.98388672 C428.7304792 243.98733176 433.99117186 246.99429965 439.25201416 250.00100708 C442.16792672 251.66748282 445.08396998 253.33372982 448 255 C449.16666729 255.66666557 450.33333396 256.33333224 451.5 257 C452.0775 257.33 452.655 257.66 453.25 258 C542.49999998 308.99999999 542.49999998 308.99999999 544.24993896 309.99996948 C545.41680407 310.66674664 546.58367419 311.33351503 547.75054932 312.00027466 C550.66422091 313.66517906 553.57780578 315.33023486 556.49121094 316.99560547 C561.77684891 320.01680142 567.06313903 323.03682799 572.35261536 326.05130005 C575.31883394 327.74179075 578.2845512 329.43315935 581.25 331.125 C581.8329483 331.45755798 582.41589661 331.79011597 583.01651001 332.13275146 C591.10245915 336.74788017 599.15575789 341.41616709 607.1875 346.125 C615.38469795 350.93065424 623.63737786 355.62446337 631.9375 360.25 C651.96946241 371.43328037 670.82021221 382.68609644 688 398 C688.77730469 398.69222656 689.55460938 399.38445312 690.35546875 400.09765625 C715.44635361 423.81745451 733.32638206 461.49009004 735.10772705 496.09259033 C735.16331156 498.2887185 735.19076452 500.48289025 735.203125 502.6796875 C735.20882507 503.49132355 735.21452515 504.30295959 735.22039795 505.13919067 C735.22979185 506.85189537 735.23635943 508.56461768 735.24023438 510.27734375 C735.24984465 512.83367673 735.2808817 515.38917075 735.3125 517.9453125 C735.4047946 532.26438329 733.7676946 546.19169717 729.8125 560 C729.6052832 560.72944824 729.39806641 561.45889648 729.18457031 562.21044922 C716.28253853 605.46094744 685.337676 636.17106844 647 658 C644.84493352 659.23156339 642.68999459 660.46334999 640.53515625 661.6953125 C636.95371897 663.74228054 633.37155151 665.78794732 629.78735352 667.83007812 C622.09972415 672.21245094 614.44529358 676.64756743 606.8125 681.125 C597.72447788 686.45253922 588.55943224 691.62763881 579.35473633 696.75048828 C572.18590793 700.74985179 565.0788197 704.8436288 558 709 C548.85086711 714.37196793 539.62596869 719.59076525 530.35546875 724.75 C523.18646305 728.74964452 516.07907237 732.84348044 509 737 C499.85086711 742.37196793 490.62596869 747.59076525 481.35546875 752.75 C474.18646305 756.74964452 467.07907237 760.84348044 460 765 C451.88580901 769.76429563 443.72190812 774.42411851 435.5 779 C426.34276685 784.09830924 417.2630683 789.31308055 408.22167969 794.61376953 C400.5920119 799.08278735 392.93022514 803.49361631 385.25 807.875 C384.66568207 808.20836365 384.08136414 808.54172729 383.4793396 808.88519287 C380.5080802 810.5800349 377.53636728 812.27407984 374.56445312 813.96777344 C369.28906705 816.97470744 364.01765562 819.98859617 358.74597168 823.00201416 C355.83081342 824.6682993 352.91539337 826.33412627 350 828 C348.83333208 828.66666448 347.66666541 829.33333114 346.5 830 C209.5078125 908.28125 209.5078125 908.28125 206.32128906 910.09765625 C203.92200075 911.47190313 201.52875413 912.85439324 199.13964844 914.24609375 C198.49961884 914.6169812 197.85958923 914.98786865 197.20016479 915.36999512 C195.95995227 916.08891144 194.72168401 916.81119499 193.48562622 917.53723145 C189.22504278 920 189.22504278 920 187 920 C186.9114915 915.91680782 186.85910937 911.83386837 186.8125 907.75 C186.78736328 906.61046875 186.76222656 905.4709375 186.73632812 904.296875 C186.61723016 890.32271349 189.81738442 877.56095891 199.3125 866.9375 C204.90357262 861.76289461 211.64163229 858.24178033 218.24853516 854.54443359 C222.47156419 852.17399157 226.66983223 849.7605652 230.87207031 847.35351562 C233.88254086 845.62927479 236.89573624 843.90985526 239.90963745 842.19161987 C247.2871019 837.98522569 254.64738121 833.74970455 262 829.5 C274.46587561 822.29762038 286.96361385 815.15170244 299.46777344 808.01611328 C304.7304792 805.01266824 309.99117186 802.00570035 315.25201416 798.99899292 C318.16792672 797.33251718 321.08396998 795.66627018 324 794 C325.16666729 793.33333443 326.33333396 792.66666776 327.5 792 C357.83333333 774.66666667 388.16666667 757.33333333 418.5 740 C419.07748993 739.67000504 419.65497986 739.34001007 420.24996948 739.00001526 C421.41673537 738.33329335 422.58350376 737.66657582 423.75027466 736.99986267 C426.66544378 735.33407716 429.58056947 733.66821573 432.49560547 732.00219727 C437.76343195 728.99159687 443.03157559 725.98155853 448.30133057 722.97433472 C460.21576145 716.17522042 472.12188804 709.36246827 484 702.5 C496.46602223 695.29787206 508.96361244 688.15170324 521.46777344 681.01611328 C526.7304792 678.01266824 531.99117186 675.00570035 537.25201416 671.99899292 C540.16792672 670.33251718 543.08396998 668.66627018 546 667 C547.16666729 666.33333443 548.33333396 665.66666776 549.5 665 C551.83333333 663.66666667 554.16666667 662.33333333 556.5 661 C557.07746979 660.67001511 557.65493958 660.34003021 558.24990845 660.00004578 C559.41687278 659.33321338 560.58384462 658.66639413 561.75082397 657.99958801 C564.66299806 656.33556468 567.57504228 654.67131491 570.48681641 653.0065918 C576.39197389 649.63082129 582.29937246 646.2590699 588.2109375 642.89453125 C594.05854465 639.56626752 599.89700486 636.22239904 605.73144531 632.87109375 C608.84310733 631.08981367 611.96388988 629.32549054 615.0859375 627.5625 C647.85387871 608.87247269 670.76500295 583.20237981 681.25 546.5625 C689.70347979 512.64291236 684.6505033 476.90732022 667.09375 446.72265625 C651.15436438 421.86636024 628.77255748 407.33923076 603.54541016 393.01464844 C600.05072047 391.03027069 596.56198254 389.03559159 593.07421875 387.0390625 C588.40788431 384.36821948 583.74011716 381.69992671 579.0703125 379.03515625 C572.62811348 375.35892402 566.1877516 371.6794856 559.74798584 367.99899292 C556.83207328 366.33251718 553.91603002 364.66627018 551 363 C549.83333271 362.33333443 548.66666604 361.66666776 547.5 361 C546.9225 360.67 546.345 360.34 545.75 360 C512.50000001 341.00000001 512.50000001 341.00000001 510.75006104 340.00003052 C509.58319593 339.33325336 508.41632581 338.66648497 507.24945068 337.99972534 C504.33577909 336.33482094 501.42219422 334.66976514 498.50878906 333.00439453 C493.22315109 329.98319858 487.93686097 326.96317201 482.64738464 323.94869995 C479.68116606 322.25820925 476.7154488 320.56684065 473.75 318.875 C473.1670517 318.54244202 472.58410339 318.20988403 471.98348999 317.86724854 C463.89754031 313.25211953 455.84427229 308.58378188 447.8125 303.875 C438.724328 298.54771058 429.55943841 293.37236462 420.35473633 288.24951172 C412.17949662 283.688689 404.09197544 278.98978374 396.01953125 274.25 C388.8947181 270.07756041 381.71453859 266.01504756 374.5 262 C365.27068598 256.86368611 356.12763027 251.59787465 347.01953125 246.25 C339.8947181 242.07756041 332.71453859 238.01504756 325.5 234 C316.27068598 228.86368611 307.12763027 223.59787465 298.01953125 218.25 C290.89471475 214.07755844 283.71446163 210.01518978 276.5 206 C267.34276685 200.90169076 258.2630683 195.68691945 249.22167969 190.38623047 C241.5920119 185.91721265 233.93022514 181.50638369 226.25 177.125 C225.66568207 176.79163635 225.08136414 176.45827271 224.4793396 176.11480713 C221.5080802 174.4199651 218.53636728 172.72592016 215.56445312 171.03222656 C210.28906705 168.02529256 205.01765562 165.01140383 199.74597168 161.99798584 C196.83081342 160.3317007 193.91539337 158.66587373 191 157 C189.83333208 156.33333552 188.66666541 155.66666886 187.5 155 C186.9225 154.67 186.345 154.34 185.75 154 C96.49999998 102.99999999 96.49999998 102.99999999 94.75006104 102.00003052 C93.58319593 101.33325336 92.41632581 100.66648497 91.24945068 99.99972534 C88.33577909 98.33482094 85.42219422 96.66976514 82.50878906 95.00439453 C76.03283266 91.30282939 69.55461271 87.60528045 63.07382202 83.91218567 C57.8406618 80.92901269 52.6150587 77.93276386 47.38964844 74.93603516 C44.01939615 73.01107833 40.63936355 71.10424145 37.2578125 69.19921875 C35.12994702 67.98743791 33.00233121 66.77521853 30.875 65.5625 C29.92206055 65.03188965 28.96912109 64.5012793 27.98730469 63.95458984 C15.19754441 56.61333114 5.78487401 47.27737335 0.81591797 33.27246094 C-0.74102835 27.02790425 -0.41210724 20.7027367 -0.25 14.3125 C-0.22988145 12.91734367 -0.21164025 11.52215896 -0.1953125 10.12695312 C-0.14858041 6.75055933 -0.08307355 3.37566194 0 0 Z " fill="#293E8E" transform="translate(0,0)"/>
</svg>
