<svg width="667" height="203" viewBox="0 0 667 203" fill="none" xmlns="http://www.w3.org/2000/svg">
<g clip-path="url(#clip0_6_2)">
<path fill-rule="evenodd" clip-rule="evenodd" d="M205.931 46.0821H246.997C270.386 46.0821 285 65.9723 285 83.4159V87.9249C285 105.368 270.386 125.259 246.997 125.259L212.59 125.259V140.393C212.59 149.085 205.5 156.175 196.808 156.175H192.855C191.364 156.175 190.149 154.96 190.149 153.469V61.8642C190.149 53.1717 197.239 46.0821 205.931 46.0821ZM262.559 84.5429C262.559 76.7325 256.012 69.4173 247.073 69.4173H212.59V101.924L250.455 101.923C257.14 101.923 262.559 95.7341 262.559 89.0523V84.5429ZM659.599 46.0821H663.552C665.042 46.0821 666.257 47.2972 666.257 48.7874V140.393C666.257 149.085 659.167 156.175 650.475 156.175H646.522C645.032 156.175 643.816 154.96 643.816 153.469V61.8642C643.816 53.1717 650.906 46.0821 659.599 46.0821ZM555.052 48.6329L602.74 118.307V61.8642C602.74 53.1717 609.83 46.0821 618.522 46.0821H622.475C623.965 46.0821 625.181 47.2972 625.181 48.7874V140.393C625.181 149.085 618.091 156.175 609.398 156.175H602.397C600.417 156.175 598.714 155.284 597.584 153.658L549.961 85.1397V140.393C549.961 149.085 542.871 156.175 534.179 156.175H530.226C528.736 156.175 527.521 154.96 527.521 153.469V61.8642C527.521 53.1717 534.611 46.0821 543.303 46.0821H550.214C552.209 46.0821 553.925 46.9865 555.052 48.6329ZM440.891 132.84H506.291C507.781 132.84 508.996 134.055 508.996 135.545V140.393C508.996 149.085 501.906 156.175 493.214 156.175H421.156C419.665 156.175 418.45 154.96 418.45 153.469V61.8642C418.45 53.1717 425.54 46.0821 434.232 46.0821H438.185C439.675 46.0821 440.891 47.2972 440.891 48.7874V132.84ZM323.539 86.8462H393.1C394.59 86.8462 395.806 88.0617 395.806 89.552V107.476C395.806 108.967 394.59 110.182 393.1 110.182H323.539V132.84H395.806V140.393C395.806 149.085 388.716 156.175 380.023 156.175H323.539H303.804C302.314 156.175 301.099 154.96 301.099 153.469V61.8642C301.099 53.1717 308.189 46.0821 316.881 46.0821H393.1C394.59 46.0821 395.806 47.2972 395.806 48.7874V69.4173H323.539V86.8462Z" fill="white"/>
<path d="M8.43838 51.1058L83.5609 94.0831C86.1578 95.5686 87.6475 98.1371 87.6475 101.129C87.6475 104.12 86.1578 106.688 83.5609 108.174L36.9387 134.846V99.7653C36.9387 95.6105 34.8697 92.0441 31.264 89.9809L25.3358 86.5891V182.533C25.3358 185.857 23.6812 188.71 20.7955 190.361L0.00318909 202.256V55.9981C0.00318909 53.9325 1.02479 52.1592 2.81172 51.1225C4.59905 50.0861 6.64572 50.0797 8.43838 51.1058Z" fill="white"/>
<path d="M0.00318909 19.4783L112.622 83.9069C118.969 87.5382 122.61 93.8159 122.61 101.129C122.61 108.441 118.969 114.719 112.622 118.35L36.9387 161.648V150.4C36.9387 147.076 38.5937 144.223 41.4785 142.572L98.8688 109.739C102.042 107.923 103.863 104.785 103.863 101.129C103.863 97.4719 102.042 94.333 98.8681 92.5177L34.3217 55.5906L4.54319 38.5539C1.65785 36.9035 0.00318909 34.0499 0.00318909 30.7262V19.4783Z" fill="white"/>
<path d="M0.00318909 0.000580457L128.879 73.7308C138.978 79.5078 144.77 89.4952 144.77 101.129C144.77 112.763 138.978 122.75 128.879 128.527L36.9387 181.126V177.202C36.9387 173.878 38.5937 171.025 41.4785 169.374L122.456 123.047C130.534 118.426 135.168 110.436 135.168 101.129C135.168 91.8215 130.534 83.8315 122.456 79.2099L4.54319 11.7526C1.65785 10.1016 0.00318909 7.24818 0.00318909 3.92445V0.000580457Z" fill="white"/>
</g>
<defs>
<clipPath id="clip0_6_2">
<rect width="666.254" height="202.256" fill="white"/>
</clipPath>
</defs>
</svg>
